<?xml version="1.0" standalone="no"?>
<!DOCTYPE svg PUBLIC "-//W3C//DTD SVG 20010904//EN"
 "http://www.w3.org/TR/2001/REC-SVG-20010904/DTD/svg10.dtd">
<svg version="1.0" xmlns="http://www.w3.org/2000/svg"
 width="28.000000pt" height="28.000000pt" viewBox="0 0 28.000000 28.000000"
 preserveAspectRatio="xMidYMid meet">

<g transform="translate(0.000000,28.000000) scale(0.100000,-0.100000)"
fill="#000000" stroke="none">
<path d="M73 250 c-61 -37 -81 -116 -43 -177 35 -59 101 -78 165 -47 38 18 59
45 69 90 8 35 -14 67 -43 62 -26 -5 -24 -33 4 -46 32 -15 32 -37 -2 -71 -43
-42 -87 -47 -129 -13 -45 36 -45 68 1 109 19 17 35 27 35 23 0 -5 -13 -18 -30
-30 -38 -27 -38 -57 -1 -92 24 -23 35 -27 61 -21 37 7 84 49 76 68 -3 8 -14
19 -25 25 -19 10 -21 8 -21 -19 0 -27 -21 -61 -39 -61 -13 0 -31 24 -31 42 0
18 33 42 44 31 3 -3 6 3 6 14 0 30 -37 108 -43 91 -4 -10 -6 -9 -6 3 -1 8 4
20 11 27 20 20 -23 15 -59 -8z"/>
<path d="M140 90 c0 -5 7 -10 15 -10 8 0 15 5 15 10 0 6 -7 10 -15 10 -8 0
-15 -4 -15 -10z"/>
</g>
</svg>
